<?xml version="1.0" standalone="no"?>
<!DOCTYPE svg PUBLIC "-//W3C//DTD SVG 20010904//EN"
 "http://www.w3.org/TR/2001/REC-SVG-20010904/DTD/svg10.dtd">
<svg version="1.0" xmlns="http://www.w3.org/2000/svg"
 width="300.000000pt" height="109.000000pt" viewBox="0 0 300.000000 109.000000"
 preserveAspectRatio="xMidYMid meet">
<metadata>
Created by potrace 1.10, written by Peter Selinger 2001-2011
</metadata>
<g transform="translate(0.000000,109.000000) scale(0.100000,-0.100000)"
fill="#000000" stroke="none">
<path d="M145 663 l0 -233 43 0 42 0 0 133 c0 149 -8 239 -21 231 -5 -3 -9
-15 -9 -27 0 -12 -4 -27 -8 -34 -4 -7 -9 19 -10 57 l-2 70 29 0 c23 0 36 -9
60 -42 36 -48 34 -59 -5 -29 -56 44 -49 31 142 -266 l59 -93 53 0 52 0 0 233
0 232 -44 1 -44 1 6 -173 c3 -127 2 -174 -7 -174 -6 0 -11 4 -11 9 0 4 -47 81
-103 171 l-104 163 -59 1 -59 2 0 -233z m51 -82 c4 -69 3 -102 -4 -97 -5 3
-10 52 -11 108 -1 56 0 100 3 97 3 -3 8 -52 12 -108z m287 -41 c9 0 20 8 26
18 15 27 33 1 29 -44 -3 -34 -7 -39 -29 -42 -29 -3 -59 29 -74 78 -7 24 -7 24
12 8 11 -10 27 -18 36 -18z"/>
<path d="M680 663 l0 -233 45 0 45 0 0 234 0 234 -45 -2 -45 -1 0 -232z m59 7
c2 -152 0 -178 -14 -183 -13 -6 -15 16 -15 177 0 148 3 183 14 183 11 0 14
-35 15 -177z"/>
<path d="M843 886 c2 -6 37 -111 78 -233 l74 -223 61 0 62 0 76 228 c42 125
76 230 76 233 0 4 -20 6 -45 5 -41 -1 -46 -3 -54 -31 -6 -16 -31 -100 -56
-185 -60 -201 -55 -189 -65 -165 -5 11 -33 101 -62 201 l-52 180 -49 1 c-32 0
-47 -3 -44 -11z m116 -195 c1 -30 -17 -16 -24 17 -2 11 -9 30 -15 41 -6 12 -8
21 -5 21 3 0 -2 14 -11 31 -13 26 -14 33 -2 40 10 6 18 -8 35 -59 12 -37 22
-78 22 -91z m261 144 c0 -17 -43 -131 -52 -136 -5 -3 -9 -9 -9 -13 4 -26 -1
-46 -10 -46 -14 0 -4 63 11 68 5 2 6 11 3 20 -4 15 -3 15 6 2 10 -12 11 -11
10 10 -4 45 1 71 10 65 5 -3 12 -1 16 5 3 5 1 10 -5 10 -6 0 -8 5 -5 10 6 10
25 14 25 5z m-115 -334 c-6 -28 -10 -31 -44 -31 -43 0 -61 14 -54 41 5 19 6
19 20 -1 19 -27 38 -25 60 4 22 30 27 26 18 -13z"/>
<path d="M1370 721 c0 -200 -4 -211 -71 -211 -34 0 -35 0 -31 -41 l4 -41 61 4
c53 4 64 8 88 37 36 43 39 65 39 261 l0 167 -45 1 -45 1 0 -178z m60 -15 c-2
-148 -11 -191 -48 -223 -28 -26 -47 -29 -58 -10 -4 6 -4 9 0 5 11 -9 56 32 68
62 5 14 9 79 9 144 -1 87 2 122 11 128 10 6 10 8 1 8 -7 0 -13 7 -13 15 0 9 6
12 16 8 13 -5 15 -26 14 -137z"/>
<path d="M1570 663 l0 -233 170 0 170 0 0 38 0 39 -129 -5 -129 -5 1 68 2 67
113 -1 112 -2 0 35 0 36 -113 0 -113 0 0 60 -1 60 129 0 128 0 0 38 0 37 -170
0 -170 0 0 -232z m80 178 c-5 -11 -15 -23 -20 -26 -15 -9 -1 -106 17 -127 13
-15 13 -19 -1 -40 -22 -31 -22 -140 -1 -158 21 -17 -1 -33 -27 -19 -16 9 -18
27 -18 193 0 100 3 186 7 189 3 4 17 7 30 7 20 0 22 -3 13 -19z"/>
<path d="M1995 663 l0 -233 44 0 44 0 -5 185 c-3 101 -3 183 1 181 3 -3 58
-86 121 -185 l115 -181 52 0 53 0 0 234 0 233 -44 0 -44 0 4 -181 5 -181 -26
41 c-14 23 -65 103 -114 179 l-89 138 -59 1 -58 2 0 -233z m107 180 c10 -9 18
-22 18 -29 0 -7 6 -14 13 -17 6 -2 9 -7 6 -11 -3 -3 -19 0 -34 8 -33 18 -55 7
-55 -28 -1 -17 -3 -16 -14 9 -27 64 18 111 66 68z m150 -230 c7 -8 7 -13 1
-13 -6 0 -21 20 -34 45 -13 25 -28 45 -32 45 -5 0 -5 5 -1 11 3 6 17 -7 31
-33 14 -23 29 -49 35 -55z m130 -55 c3 -7 4 -29 4 -48 -1 -30 -5 -35 -28 -38
-21 -3 -32 4 -52 34 -28 42 -25 65 6 37 20 -17 21 -17 37 4 18 26 27 28 33 11z"/>
<path d="M2509 895 c0 0 -1 -17 -2 -38 l-2 -37 118 0 c64 0 117 -2 117 -5 0
-3 -54 -70 -120 -150 -115 -137 -120 -146 -120 -189 l0 -46 175 0 175 0 0 41
0 41 -125 -4 c-69 -2 -125 0 -125 3 0 3 54 71 120 150 114 137 120 146 120
189 l0 45 -165 0 c-91 0 -165 0 -166 0z m289 -43 c18 -12 6 -39 -37 -87 -20
-22 -49 -56 -64 -75 -35 -44 -24 -22 28 54 39 57 39 58 23 87 -17 29 -17 29
10 29 15 0 33 -4 40 -8z m-200 -291 c-20 -37 -20 -41 -5 -65 20 -30 11 -38
-29 -27 -39 11 -35 40 13 91 20 22 38 40 39 40 2 0 -6 -18 -18 -39z"/>
<path d="M1055 190 c-602 -4 -658 -6 -320 -8 226 -2 502 -5 615 -8 113 -2 382
-4 598 -4 215 0 392 -3 392 -8 0 -4 -78 -8 -172 -9 -95 -1 -285 -4 -423 -7
-137 -3 -518 -8 -845 -12 -327 -3 -597 -8 -599 -10 -2 -2 539 -5 1202 -6
l1207 -3 0 43 0 43 -462 -3 c-255 -2 -791 -5 -1193 -8z"/>
<path d="M2759 195 c0 -3 -1 -21 -1 -41 l-1 -36 58 0 58 0 1 41 1 41 -57 0
c-32 0 -58 -2 -59 -5z"/>
</g>
</svg>
